<svg xmlns="http://www.w3.org/2000/svg" xmlns:xlink="http://www.w3.org/1999/xlink" width="1361px" height="609px" version="1.1" viewBox="0 0 1361 609">
<!--Generator: Sketch 46.2 (44496) - http://www.bohemiancoding.com/sketch-->
    <title>
        Group 21
    </title>
    <desc>
        Created with Sketch.
    </desc>
    <defs/>
    <g id="Ant-Design-Pro-3.0" fill="none" fill-rule="evenodd" stroke="none" stroke-width="1">
        <g id="账户密码登录-校验" transform="translate(-79.000000, -82.000000)">
            <g id="Group-21" transform="translate(77.000000, 73.000000)">
                <g id="Group-18" opacity="0.8" transform="translate(74.901416, 569.699158) rotate(-7.000000) translate(-74.901416, -569.699158) translate(4.901416, 525.199158)">
                    <ellipse id="Oval-11" cx="63.5748792" cy="32.468367" fill="#CFDAE6" opacity="0.25" rx="21.7830479" ry="21.766008"/>
                    <ellipse id="Oval-3" cx="5.98746479" cy="13.8668601" fill="#CFDAE6" opacity="0.599999964" rx="5.2173913" ry="5.21330997"/>
                    <path id="Oval-3-Copy" fill="#CFDAE6" d="M38.1354514,88.3520215 C43.8984227,88.3520215 48.570234,83.6838647 48.570234,77.9254015 C48.570234,72.1669383 43.8984227,67.4987816 38.1354514,67.4987816 C32.3724801,67.4987816 27.7006688,72.1669383 27.7006688,77.9254015 C27.7006688,83.6838647 32.3724801,88.3520215 38.1354514,88.3520215 Z" opacity="0.45"/>
                    <path id="Path-12" stroke="#CFDAE6" stroke-linecap="round" stroke-linejoin="round" stroke-width="1.73913043" d="M64.2775582,33.1704963 L119.185836,16.5654915"/>
                    <path id="Path-16" stroke="#E0B4B7" stroke-dasharray="1.405357899873153,2.108036953469981" stroke-linecap="round" stroke-linejoin="round" stroke-width="0.702678964" d="M42.1431708,26.5002681 L7.71190162,14.5640702" opacity="0.7"/>
                    <path id="Path-15" stroke="#BACAD9" stroke-dasharray="1.405357899873153,2.108036953469981" stroke-linecap="round" stroke-linejoin="round" stroke-width="0.702678964" d="M63.9262187,33.521561 L43.6721326,69.3250951"/>
                    <g id="Group-17" fill="#CFDAE6" transform="translate(126.850922, 13.543654) rotate(30.000000) translate(-126.850922, -13.543654) translate(117.285705, 4.381889)">
                        <ellipse id="Oval-4" cx="9.13482653" cy="9.12768076" opacity="0.45" rx="9.13482653" ry="9.12768076"/>
                        <path id="Oval-4" d="M18.2696531,18.2553615 C18.2696531,13.2142826 14.1798519,9.12768076 9.13482653,9.12768076 C4.08980114,9.12768076 0,13.2142826 0,18.2553615 L18.2696531,18.2553615 Z" transform="translate(9.134827, 13.691521) scale(-1, -1) translate(-9.134827, -13.691521) "/>
                    </g>
                </g>
                <g id="Group-14" transform="translate(216.294700, 123.725600) rotate(-5.000000) translate(-216.294700, -123.725600) translate(106.294700, 35.225600)">
                    <ellipse id="Oval-2" cx="29.1176471" cy="29.1402439" fill="#CFDAE6" opacity="0.25" rx="29.1176471" ry="29.1402439"/>
                    <ellipse id="Oval-2" cx="29.1176471" cy="29.1402439" fill="#CFDAE6" opacity="0.3" rx="21.5686275" ry="21.5853659"/>
                    <ellipse id="Oval-2-Copy" cx="179.019608" cy="138.146341" stroke="#CFDAE6" opacity="0.4" rx="23.7254902" ry="23.7439024"/>
                    <ellipse id="Oval-2" cx="29.1176471" cy="29.1402439" fill="#BACAD9" opacity="0.5" rx="10.7843137" ry="10.7926829"/>
                    <path id="Oval-2" fill="#BACAD9" d="M29.1176471,39.9329268 L29.1176471,18.347561 C23.1616351,18.347561 18.3333333,23.1796097 18.3333333,29.1402439 C18.3333333,35.1008781 23.1616351,39.9329268 29.1176471,39.9329268 Z"/>
                    <g id="Group-9" fill="#E6A1A6" opacity="0.45" transform="translate(172.000000, 131.000000)">
                        <ellipse id="Oval-2-Copy-2" cx="7.01960784" cy="7.14634146" rx="6.47058824" ry="6.47560976"/>
                        <path id="Oval-2-Copy-2" d="M0.549019608,13.6219512 C4.12262681,13.6219512 7.01960784,10.722722 7.01960784,7.14634146 C7.01960784,3.56996095 4.12262681,0.670731707 0.549019608,0.670731707 L0.549019608,13.6219512 Z" transform="translate(3.784314, 7.146341) scale(-1, 1) translate(-3.784314, -7.146341) "/>
                    </g>
                    <ellipse id="Oval-10" cx="218.382353" cy="138.685976" fill="#CFDAE6" rx="1.61764706" ry="1.61890244"/>
                    <ellipse id="Oval-10-Copy-2" cx="179.558824" cy="175.381098" fill="#E0B4B7" opacity="0.35" rx="1.61764706" ry="1.61890244"/>
                    <ellipse id="Oval-10-Copy" cx="180.098039" cy="102.530488" fill="#E0B4B7" opacity="0.35" rx="2.15686275" ry="2.15853659"/>
                    <path id="Path-11" stroke="#CFDAE6" d="M28.9985381,29.9671598 L171.151018,132.876024" opacity="0.8"/>
                </g>
                <g id="Group-10" opacity="0.799999952" transform="translate(1054.100635, 36.659317) rotate(-11.000000) translate(-1054.100635, -36.659317) translate(1026.600635, 4.659317)">
                    <ellipse id="Oval-7" cx="43.8135593" cy="32" stroke="#CFDAE6" stroke-width="0.941176471" rx="11.1864407" ry="11.2941176"/>
                    <g id="Group-12" fill="#BACAD9" transform="translate(34.596774, 23.111111)">
                        <ellipse id="Oval-7" cx="9.18534718" cy="8.88888889" opacity="0.45" rx="8.47457627" ry="8.55614973"/>
                        <path id="Oval-7" d="M9.18534718,17.4450386 C13.8657264,17.4450386 17.6599235,13.6143199 17.6599235,8.88888889 C17.6599235,4.16345787 13.8657264,0.332739156 9.18534718,0.332739156 L9.18534718,17.4450386 Z"/>
                    </g>
                    <path id="Path-2" stroke="#CFDAE6" stroke-width="0.941176471" d="M34.6597385,24.809694 L5.71666084,4.76878945"/>
                    <ellipse id="Oval" cx="3.26271186" cy="3.29411765" stroke="#CFDAE6" stroke-width="0.941176471" rx="3.26271186" ry="3.29411765"/>
                    <ellipse id="Oval-Copy" cx="2.79661017" cy="61.1764706" fill="#F7E1AD" rx="2.79661017" ry="2.82352941"/>
                    <path id="Path-10" stroke="#CFDAE6" stroke-width="0.941176471" d="M34.6312443,39.2922712 L5.06366663,59.785082"/>
                </g>
                <g id="Group-19" opacity="0.33" transform="translate(1282.537219, 446.502867) rotate(-10.000000) translate(-1282.537219, -446.502867) translate(1142.537219, 327.502867)">
                    <g id="Group-17" fill="#BACAD9" transform="translate(141.333539, 104.502742) rotate(275.000000) translate(-141.333539, -104.502742) translate(129.333539, 92.502742)">
                        <circle id="Oval-4" cx="11.6666667" cy="11.6666667" r="11.6666667" opacity="0.45"/>
                        <path id="Oval-4" d="M23.3333333,23.3333333 C23.3333333,16.8900113 18.1099887,11.6666667 11.6666667,11.6666667 C5.22334459,11.6666667 0,16.8900113 0,23.3333333 L23.3333333,23.3333333 Z" transform="translate(11.666667, 17.500000) scale(-1, -1) translate(-11.666667, -17.500000) "/>
                    </g>
                    <circle id="Oval-5-Copy-6" cx="201.833333" cy="87.5" r="5.83333333" fill="#CFDAE6"/>
                    <path id="Path-17" stroke="#BACAD9" stroke-width="1.16666667" d="M143.5,88.8126685 L155.070501,17.6038544"/>
                    <path id="Path-18" stroke="#BACAD9" stroke-width="1.16666667" d="M17.5,37.3333333 L127.466252,97.6449735"/>
                    <polyline id="Path-19" stroke="#CFDAE6" stroke-width="1.16666667" points="143.902597 120.302281 174.935455 231.571342 38.5 147.510847 126.366941 110.833333"/>
                    <path id="Path-20" stroke="#E0B4B7" stroke-width="1.16666667" d="M159.833333,99.7453842 L195.416667,89.25" opacity="0.6"/>
                    <path id="Path-24" stroke="#BACAD9" stroke-width="1.16666667" d="M205.333333,82.1372105 L238.719406,36.1666667"/>
                    <path id="Path-25" stroke="#CFDAE6" stroke-width="1.16666667" d="M266.723424,132.231988 L207.083333,90.4166667"/>
                    <circle id="Oval-5" cx="156.916667" cy="8.75" r="8.75" fill="#C1D1E0"/>
                    <circle id="Oval-5-Copy-3" cx="39.0833333" cy="148.75" r="5.25" fill="#C1D1E0"/>
                    <circle id="Oval-5-Copy-2" cx="8.75" cy="33.25" r="8.75" fill="#D1DEED" fill-opacity="0.6"/>
                    <circle id="Oval-5-Copy-4" cx="243.833333" cy="30.3333333" r="5.83333333" fill="#D1DEED" fill-opacity="0.6"/>
                    <circle id="Oval-5-Copy-5" cx="175.583333" cy="232.75" r="5.25" fill="#E0B4B7"/>
                </g>
            </g>
        </g>
    </g>
</svg>
